<svg width="190" height="66" viewBox="0 0 190 66" fill="none" xmlns="http://www.w3.org/2000/svg">
<path d="M1.37109 30.6367V18.7891C1.37109 17.7578 1.71094 16.668 2.39062 15.5195C3.70312 13.293 5.69531 12.1914 8.36719 12.2148V15.2383C7.24219 15.2617 6.29297 15.6602 5.51953 16.4336C4.81641 17.1836 4.46484 17.9688 4.46484 18.7891V30.6367C4.46484 31.0352 4.59375 31.4922 4.85156 32.0078C5.57812 33.4375 6.75 34.1523 8.36719 34.1523V37.1758C6.07031 37.1523 4.24219 36.2969 2.88281 34.6094C1.875 33.3203 1.37109 31.9961 1.37109 30.6367ZM10.0898 37.1758V34.1523L10.793 34.0469C11.2617 33.9766 11.7773 33.7305 12.3398 33.3086C12.9258 32.8867 13.3242 32.3359 13.5352 31.6562C13.6289 31.3984 13.6992 31 13.7461 30.4609C13.7695 30.3438 13.7812 30.1562 13.7812 29.8984L16.6992 30.6016C16.6992 32.2656 16.1016 33.7422 14.9062 35.0312C13.5703 36.4609 11.9648 37.1758 10.0898 37.1758ZM10.0898 15.2383V12.2148C11.6602 12.2148 13.125 12.8359 14.4844 14.0781C15.9609 15.4844 16.6992 17.0781 16.6992 18.8594L13.7461 19.6328V19.0703C13.6992 18.6016 13.6289 18.2266 13.5352 17.9453C13.0898 16.7969 12.2812 15.9766 11.1094 15.4844C10.4297 15.3203 10.0898 15.2383 10.0898 15.2383ZM18.9492 32.5703V30.8828C18.9492 29.3594 19.5469 28.2461 20.7422 27.543C21.1172 27.3555 22.5586 26.9102 25.0664 26.207C27.8555 25.4336 29.25 24.7539 29.25 24.168V23.5C29.25 22.9375 29.1094 22.4219 28.8281 21.9531C28.2891 21.0625 27.4688 20.6172 26.3672 20.6172V17.9102C27.9844 17.9102 29.332 18.4258 30.4102 19.457C31.5586 20.582 32.1328 21.8945 32.1328 23.3945V33.0273C32.1562 33.7539 32.4727 34.1406 33.082 34.1875V36.9648C31.9102 36.9648 30.9609 36.5547 30.2344 35.7344C29.2969 36.5312 28.0078 36.9414 26.3672 36.9648V34.2227C26.5781 34.2227 26.8008 34.2109 27.0352 34.1875C28.5117 33.9531 29.25 33.0742 29.25 31.5508V27.5078C28.6406 27.8359 27.4688 28.2109 25.7344 28.6328C23.5078 29.1719 22.2539 29.5703 21.9727 29.8281C21.7148 30.0625 21.5742 30.4375 21.5508 30.9531V31.9023C21.5742 33.4023 22.6055 34.1758 24.6445 34.2227V36.9648C23.1914 36.9648 21.9258 36.5898 20.8477 35.8398C19.582 34.9492 18.9492 33.8594 18.9492 32.5703ZM19.1953 22.6914C19.1953 21.5664 19.6406 20.5586 20.5312 19.668C21.6797 18.4961 23.0625 17.9102 24.6797 17.9102V20.6523C24.2344 20.6523 23.8125 20.7461 23.4141 20.9336C22.3359 21.4492 21.7969 22.3633 21.7969 23.6758L19.1953 22.6914ZM40.5352 37V34.1523H43.1719C44.5078 34.1523 45.4219 33.6367 45.9141 32.6055C46.0547 32.3008 46.125 32.0078 46.125 31.7266V23.2539C46.125 22.5977 45.7734 22.0117 45.0703 21.4961C44.4844 21.0508 43.7812 20.8281 42.9609 20.8281H40.3945V17.9805H42.9609C45.2344 17.9805 46.9688 18.8711 48.1641 20.6523C48.75 21.5195 49.043 22.3516 49.043 23.1484V31.832C49.043 32.9805 48.5508 34.082 47.5664 35.1367C46.3945 36.3789 44.918 37 43.1367 37H40.5352ZM35.6484 43.6797V17.9805H38.7422V43.6797H35.6484ZM52.0664 15.3789C52.0664 14.6523 52.4062 14.1367 53.0859 13.832C53.3203 13.7383 53.5547 13.6914 53.7891 13.6914C54.4922 13.6914 55.0078 14.0195 55.3359 14.6758C55.4297 14.9102 55.4766 15.1445 55.4766 15.3789C55.4766 16.082 55.1484 16.5977 54.4922 16.9258C54.2578 17.0195 54.0234 17.0664 53.7891 17.0664C53.0625 17.0664 52.5352 16.7383 52.207 16.082C52.1133 15.8477 52.0664 15.6133 52.0664 15.3789ZM52.3125 37V18.4727H55.2656V37H52.3125ZM57.6914 21.0391V18.1914H60.0117V12.1094H63V18.1914H65.25V21.0742H63V31.1641C63 32.8281 63.6797 33.7539 65.0391 33.9414C65.2969 33.9883 65.5547 34.0117 65.8125 34.0117H66.3047L66.9727 37H65.707C62.8242 36.9766 61.0547 35.8984 60.3984 33.7656C60.1641 32.9688 60.0469 31.9844 60.0469 30.8125L60.0117 21.0391H57.6914ZM68.3086 32.5703V30.8828C68.3086 29.3594 68.9062 28.2461 70.1016 27.543C70.4766 27.3555 71.918 26.9102 74.4258 26.207C77.2148 25.4336 78.6094 24.7539 78.6094 24.168V23.5C78.6094 22.9375 78.4688 22.4219 78.1875 21.9531C77.6484 21.0625 76.8281 20.6172 75.7266 20.6172V17.9102C77.3438 17.9102 78.6914 18.4258 79.7695 19.457C80.918 20.582 81.4922 21.8945 81.4922 23.3945V33.0273C81.5156 33.7539 81.832 34.1406 82.4414 34.1875V36.9648C81.2695 36.9648 80.3203 36.5547 79.5938 35.7344C78.6562 36.5312 77.3672 36.9414 75.7266 36.9648V34.2227C75.9375 34.2227 76.1602 34.2109 76.3945 34.1875C77.8711 33.9531 78.6094 33.0742 78.6094 31.5508V27.5078C78 27.8359 76.8281 28.2109 75.0938 28.6328C72.8672 29.1719 71.6133 29.5703 71.332 29.8281C71.0742 30.0625 70.9336 30.4375 70.9102 30.9531V31.9023C70.9336 33.4023 71.9648 34.1758 74.0039 34.2227V36.9648C72.5508 36.9648 71.2852 36.5898 70.207 35.8398C68.9414 34.9492 68.3086 33.8594 68.3086 32.5703ZM68.5547 22.6914C68.5547 21.5664 69 20.5586 69.8906 19.668C71.0391 18.4961 72.4219 17.9102 74.0391 17.9102V20.6523C73.5938 20.6523 73.1719 20.7461 72.7734 20.9336C71.6953 21.4492 71.1562 22.3633 71.1562 23.6758L68.5547 22.6914ZM85.0781 37V12.1797H88.207V37H85.0781ZM90.3164 15.3789V12.3906H105.539V15.3789H99.457V37H96.3633V15.3789H90.3164ZM107.473 31.7969V23.1133C107.473 22.0117 107.965 20.9336 108.949 19.8789C110.168 18.6133 111.691 17.9805 113.52 17.9805V20.8281C112.137 20.8281 111.176 21.4023 110.637 22.5508C110.473 22.9023 110.391 23.2539 110.391 23.6055V31.3398C110.391 32.207 110.789 32.9453 111.586 33.5547C112.148 33.9766 112.793 34.1875 113.52 34.1875V37.0352C111.293 37.0352 109.57 36.1328 108.352 34.3281C107.766 33.4375 107.473 32.5938 107.473 31.7969ZM115.031 37.0352V34.1875C116.273 34.1875 117.164 33.625 117.703 32.5C117.891 32.125 117.984 31.7617 117.984 31.4102V23.6055C117.984 22.6445 117.574 21.8828 116.754 21.3203C116.238 20.9922 115.652 20.8281 114.996 20.8281V17.9805C117.152 17.9805 118.816 18.8594 119.988 20.6172C120.574 21.4844 120.867 22.3164 120.867 23.1133V31.7969C120.867 32.9453 120.375 34.0586 119.391 35.1367C118.242 36.3789 116.789 37.0117 115.031 37.0352ZM122.52 17.9805H125.789L131.309 34.1172L130.359 36.9648H128.742L122.52 17.9805ZM130.254 27.2266L133.277 17.9805H136.547L142.066 34.1172L141.117 36.9648H139.5L134.93 22.9727L132.152 31.4805H131.73L130.254 27.2266ZM141.012 27.2266L144.035 17.9805H147.305L142.91 31.4805H142.488L141.012 27.2266ZM148.992 31.7969V23.0781C149.016 22 149.531 20.9336 150.539 19.8789C151.758 18.6367 153.234 18.0039 154.969 17.9805V20.7578C153.844 20.7578 152.965 21.25 152.332 22.2344C152.074 22.6562 151.945 23.043 151.945 23.3945V25.7852H159.82V23.3945C159.82 22.3398 159.281 21.5664 158.203 21.0742C157.711 20.8398 157.207 20.7227 156.691 20.7227V17.9805C158.309 17.9805 159.75 18.5547 161.016 19.7031C162.07 20.7109 162.609 21.8242 162.633 23.043V28.6328H151.945V31.7969C151.945 32.4531 152.32 33.0625 153.07 33.625C153.68 34.0469 154.324 34.2578 155.004 34.2578V37C152.871 37 151.195 36.1328 149.977 34.3984C149.32 33.4844 148.992 32.6172 148.992 31.7969ZM156.691 37V34.2227C158.098 34.2227 159.152 33.6133 159.855 32.3945C159.996 32.1367 160.102 31.8906 160.172 31.6562L162.668 32.5703C162.246 34.1875 161.285 35.4062 159.785 36.2266C158.824 36.7422 157.793 37 156.691 37ZM165.551 37V17.9805H168.539V20.582C169.148 19.5508 170.062 18.7891 171.281 18.2969C171.938 18.0391 172.582 17.9102 173.215 17.9102H173.848L173.145 20.793C171.855 20.8164 170.707 21.5078 169.699 22.8672C168.926 23.9453 168.539 25.0586 168.539 26.207V37H165.551ZM175.078 32.0078L177.855 31.4805C177.855 32.5352 178.406 33.3672 179.508 33.9766C180.047 34.2344 180.562 34.375 181.055 34.3984V37.1758C178.781 37.1758 177.082 36.3555 175.957 34.7148C175.371 33.8477 175.078 32.9453 175.078 32.0078ZM175.254 23.3594C175.254 21.2266 176.227 19.6445 178.172 18.6133C179.109 18.1211 180.047 17.875 180.984 17.875V20.6172C179.906 20.6172 179.074 21.0625 178.488 21.9531C178.184 22.3984 178.031 22.8672 178.031 23.3594C178.031 24.1094 178.617 24.7188 179.789 25.1875C180.68 25.5625 182.402 26.0547 184.957 26.6641C186.551 26.9922 187.688 27.7773 188.367 29.0195C188.719 29.6758 188.895 30.4141 188.895 31.2344C188.895 33.4844 187.992 35.1484 186.188 36.2266C185.133 36.8594 183.926 37.1758 182.566 37.1758V34.3984C183.645 34.3984 184.547 34.0234 185.273 33.2734C185.789 32.7344 186.047 32.1016 186.047 31.375C186.047 30.4375 185.121 29.6875 183.27 29.125C182.801 28.9844 182.051 28.7852 181.02 28.5273C179.918 28.2695 179.121 28.0586 178.629 27.8945C176.848 27.1914 175.77 26.125 175.395 24.6953C175.301 24.2734 175.254 23.8281 175.254 23.3594ZM182.531 20.6523V17.875C184.547 17.875 186.176 18.625 187.418 20.125C188.191 21.0859 188.578 22.0938 188.578 23.1484L185.801 23.6055C185.801 22.3164 185.098 21.4141 183.691 20.8984C183.27 20.7344 182.883 20.6523 182.531 20.6523Z" fill="white"/>
<path d="M30.892 58.584L28.348 54.48H29.308L31.612 58.26H33.208V54.48H34.132V58.26H35.728L38.02 54.48H38.992L36.436 58.584L39.304 63H38.332L35.848 59.004H34.132V63H33.208V59.004H31.492L29.008 63H28.036L30.892 58.584ZM42.7038 61.74L47.9838 54.48H48.6798V63H47.8398V55.86L42.6438 63H41.8758V54.48H42.7038V61.74ZM54.2123 56.736C54.1163 57.864 53.9923 58.828 53.8403 59.628C53.6963 60.428 53.5123 61.084 53.2883 61.596C53.0723 62.1 52.8083 62.472 52.4963 62.712C52.1923 62.944 51.8323 63.06 51.4163 63.06L51.2723 62.256C51.4323 62.248 51.5843 62.216 51.7283 62.16C51.8803 62.104 52.0243 62.004 52.1603 61.86C52.2963 61.708 52.4243 61.504 52.5443 61.248C52.6643 60.984 52.7763 60.648 52.8803 60.24C52.9843 59.824 53.0763 59.324 53.1563 58.74C53.2443 58.156 53.3203 57.464 53.3843 56.664L53.5643 54.48H57.8963V63H57.0683V55.224H54.3323L54.2123 56.736ZM64.957 63.06C64.365 63.06 63.821 62.94 63.325 62.7C62.837 62.452 62.417 62.128 62.065 61.728C61.713 61.32 61.441 60.856 61.249 60.336C61.057 59.816 60.961 59.284 60.961 58.74C60.961 58.172 61.061 57.628 61.261 57.108C61.469 56.588 61.753 56.128 62.113 55.728C62.473 55.328 62.897 55.012 63.385 54.78C63.873 54.54 64.401 54.42 64.969 54.42C65.561 54.42 66.101 54.548 66.589 54.804C67.085 55.052 67.505 55.38 67.849 55.788C68.201 56.196 68.473 56.66 68.665 57.18C68.857 57.692 68.953 58.216 68.953 58.752C68.953 59.32 68.849 59.864 68.641 60.384C68.441 60.904 68.161 61.364 67.801 61.764C67.449 62.156 67.029 62.472 66.541 62.712C66.053 62.944 65.525 63.06 64.957 63.06ZM61.801 58.74C61.801 59.204 61.877 59.652 62.029 60.084C62.181 60.508 62.397 60.888 62.677 61.224C62.957 61.552 63.289 61.816 63.673 62.016C64.057 62.208 64.485 62.304 64.957 62.304C65.437 62.304 65.873 62.2 66.265 61.992C66.657 61.784 66.989 61.512 67.261 61.176C67.533 60.84 67.741 60.46 67.885 60.036C68.037 59.612 68.113 59.18 68.113 58.74C68.113 58.276 68.033 57.832 67.873 57.408C67.721 56.976 67.505 56.596 67.225 56.268C66.945 55.94 66.613 55.68 66.229 55.488C65.845 55.288 65.421 55.188 64.957 55.188C64.477 55.188 64.041 55.292 63.649 55.5C63.257 55.7 62.925 55.968 62.653 56.304C62.381 56.64 62.169 57.02 62.017 57.444C61.873 57.868 61.801 58.3 61.801 58.74ZM77.2567 52.008C77.2407 52.392 77.0767 52.7 76.7647 52.932C76.4607 53.156 76.0367 53.268 75.4927 53.268C74.9487 53.268 74.5207 53.156 74.2087 52.932C73.9047 52.7 73.7447 52.392 73.7287 52.008H74.2447C74.2447 52.112 74.2767 52.212 74.3407 52.308C74.4047 52.404 74.4927 52.488 74.6047 52.56C74.7167 52.632 74.8487 52.692 75.0007 52.74C75.1527 52.78 75.3207 52.8 75.5047 52.8C75.8487 52.8 76.1327 52.728 76.3567 52.584C76.5887 52.432 76.7207 52.24 76.7527 52.008H77.2567ZM72.8167 61.74L78.0967 54.48H78.7927V63H77.9527V55.86L72.7567 63H71.9887V54.48H72.8167V61.74ZM87.7319 58.26H89.0279L91.8119 54.48H92.7719L89.7839 58.584L93.0839 63H92.1239L89.0999 59.004H87.7319V63H86.9039V54.48H87.7319V58.26ZM98.6545 63.06C98.0625 63.06 97.5185 62.94 97.0225 62.7C96.5345 62.452 96.1145 62.128 95.7625 61.728C95.4105 61.32 95.1385 60.856 94.9465 60.336C94.7545 59.816 94.6585 59.284 94.6585 58.74C94.6585 58.172 94.7585 57.628 94.9585 57.108C95.1665 56.588 95.4505 56.128 95.8105 55.728C96.1705 55.328 96.5945 55.012 97.0825 54.78C97.5705 54.54 98.0985 54.42 98.6665 54.42C99.2585 54.42 99.7985 54.548 100.287 54.804C100.783 55.052 101.203 55.38 101.547 55.788C101.899 56.196 102.171 56.66 102.363 57.18C102.555 57.692 102.651 58.216 102.651 58.752C102.651 59.32 102.547 59.864 102.339 60.384C102.139 60.904 101.859 61.364 101.499 61.764C101.147 62.156 100.727 62.472 100.239 62.712C99.7505 62.944 99.2225 63.06 98.6545 63.06ZM95.4985 58.74C95.4985 59.204 95.5745 59.652 95.7265 60.084C95.8785 60.508 96.0945 60.888 96.3745 61.224C96.6545 61.552 96.9865 61.816 97.3705 62.016C97.7545 62.208 98.1825 62.304 98.6545 62.304C99.1345 62.304 99.5705 62.2 99.9625 61.992C100.355 61.784 100.687 61.512 100.959 61.176C101.231 60.84 101.439 60.46 101.583 60.036C101.735 59.612 101.811 59.18 101.811 58.74C101.811 58.276 101.731 57.832 101.571 57.408C101.419 56.976 101.203 56.596 100.923 56.268C100.643 55.94 100.311 55.68 99.9265 55.488C99.5425 55.288 99.1185 55.188 98.6545 55.188C98.1745 55.188 97.7385 55.292 97.3465 55.5C96.9545 55.7 96.6225 55.968 96.3505 56.304C96.0785 56.64 95.8665 57.02 95.7145 57.444C95.5705 57.868 95.4985 58.3 95.4985 58.74ZM113.222 63V56.004L110.114 61.416H109.622L106.514 56.004V63H105.674V54.48H106.538L109.862 60.312L113.21 54.48H114.062V63H113.222ZM117.685 54.48H124.261V63H123.421V55.224H118.513V63H117.685V54.48ZM129.787 56.736C129.691 57.864 129.567 58.828 129.415 59.628C129.271 60.428 129.087 61.084 128.863 61.596C128.647 62.1 128.383 62.472 128.071 62.712C127.767 62.944 127.407 63.06 126.991 63.06L126.847 62.256C127.007 62.248 127.159 62.216 127.303 62.16C127.455 62.104 127.599 62.004 127.735 61.86C127.871 61.708 127.999 61.504 128.119 61.248C128.239 60.984 128.351 60.648 128.455 60.24C128.559 59.824 128.651 59.324 128.731 58.74C128.819 58.156 128.895 57.464 128.959 56.664L129.139 54.48H133.471V63H132.643V55.224H129.907L129.787 56.736ZM142.824 62.256V63H137.1V54.48H142.716V55.224H137.94V58.296H142.104V59.004H137.94V62.256H142.824ZM146.692 58.26H147.988L150.772 54.48H151.732L148.744 58.584L152.044 63H151.084L148.06 59.004H146.692V63H145.864V54.48H146.692V58.26ZM153.607 58.68C153.607 58.168 153.695 57.66 153.871 57.156C154.055 56.644 154.319 56.188 154.663 55.788C155.007 55.388 155.431 55.064 155.935 54.816C156.439 54.56 157.011 54.432 157.651 54.432C158.411 54.432 159.059 54.604 159.595 54.948C160.139 55.292 160.539 55.74 160.795 56.292L160.135 56.7C159.999 56.42 159.831 56.184 159.631 55.992C159.439 55.8 159.231 55.644 159.007 55.524C158.783 55.404 158.551 55.32 158.311 55.272C158.071 55.216 157.835 55.188 157.603 55.188C157.091 55.188 156.639 55.292 156.247 55.5C155.855 55.708 155.523 55.98 155.251 56.316C154.987 56.652 154.787 57.032 154.651 57.456C154.515 57.872 154.447 58.296 154.447 58.728C154.447 59.2 154.527 59.652 154.687 60.084C154.855 60.516 155.079 60.9 155.359 61.236C155.647 61.564 155.983 61.828 156.367 62.028C156.759 62.22 157.183 62.316 157.639 62.316C157.879 62.316 158.123 62.288 158.371 62.232C158.627 62.168 158.871 62.072 159.103 61.944C159.343 61.808 159.563 61.644 159.763 61.452C159.963 61.252 160.131 61.012 160.267 60.732L160.963 61.092C160.827 61.412 160.635 61.696 160.387 61.944C160.139 62.184 159.863 62.388 159.559 62.556C159.255 62.724 158.931 62.852 158.587 62.94C158.251 63.028 157.919 63.072 157.591 63.072C157.007 63.072 156.471 62.944 155.983 62.688C155.495 62.432 155.075 62.1 154.723 61.692C154.371 61.276 154.095 60.808 153.895 60.288C153.703 59.76 153.607 59.224 153.607 58.68Z" fill="white"/>
</svg>
